/* XPM */
static char *_3234_f3f485419a259c8ecd131da6ba6a7d8907c6d3e36f21674deec735df6a17494d[] = {
/* columns rows colors chars-per-pixel */
"56 56 7 1 ",
"  c gray25",
". c #6F6F6F",
"X c #875F00",
"o c #A57400",
"O c #D9B868",
"+ c gray72",
"@ c None",
/* pixels */
"@@@@@@@@........@@@@@@@@@@@@@@@@@@@@@@@@@@@@@@@@@@@@@@@@",
"@@@@@@@@........@@@@@@@@@@@@@@@@@@@@@@@@@@@@@@@@@@@@@@@@",
"@@@@@@..++++......@@@@@@@@@@@@@@@@@@@@@@@@@@@@@@@@@@@@@@",
"@@@@@@..++++......@@@@@@@@@@@@@@@@@@@@@@@@@@@@@@@@@@@@@@",
"@@@@..++++..........@@@@@@@@@@@@@@@@@@@@@@@@@@@@@@@@@@@@",
"@@@@..++++..........@@@@@@@@@@@@@@@@@@@@@@@@@@@@@@@@@@@@",
"@@@@..++............@@@@@@@@@@@@@@@@@@@@@@@@@@@@@@@@@@@@",
"@@@@..++............@@@@@@@@@@@@@@@@@@@@@@@@@@@@@@@@@@@@",
"@@..................  @@@@@@@@@@@@@@@@@@@@@@@@@@@@@@@@@@",
"@@..................  @@@@@@@@@@@@@@@@@@@@@@@@@@@@@@@@@@",
"@@..................  @@@@@@@@@@@@@@@@@@@@@@@@@@@@@@@@@@",
"@@..................  @@@@@@@@@@@@@@@@@@@@@@@@@@@@@@@@@@",
"@@..................  @@@@@@@@@@@@@@@@@@@@@@@@@@@@@@@@@@",
"@@..................  @@@@@@@@@@@@@@@@@@@@@@@@@@@@@@@@@@",
"  ................      @@@@@@@@@@@@@@@@@@@@@@@@@@@@@@@@",
"  ................      @@@@@@@@@@@@@@@@@@@@@@@@@@@@@@@@",
"  ................    oo@@@@@@@@@@@@@@@@@@@@@@@@@@@@@@@@",
"  ................    oo@@@@@@@@@@@@@@@@@@@@@@@@@@@@@@@@",
"oo  ............      oo@@@@@@@@@@@@@@@@@@@@@@@@@@@@@@@@",
"oo  ............      oo@@@@@@@@@@@@@@@@@@@@@@@@@@@@@@@@",
"ooooOO  ......    XXXXoooo@@@@@@@@@@@@@@@@@@@@@@@@@@@@@@",
"ooooOO  ......    XXXXoooo@@@@@@@@@@@@@@@@@@@@@@@@@@@@@@",
"ooooOOOOOOooooooooXXXXooOOoooooo@@@@@@@@@@@@@@@@@@@@@@@@",
"ooooOOOOOOooooooooXXXXooOOoooooo@@@@@@@@@@@@@@@@@@@@@@@@",
"ooooOOOOOOooooooooXXXXooOOOOOOOOooXXXXXX@@@@@@@@@@@@@@@@",
"ooooOOOOOOooooooooXXXXooOOOOOOOOooXXXXXX@@@@@@@@@@@@@@@@",
"ooooOOOOOOooooooooXXXXooOOOOOOXXXXooooOOOOOO@@@@@@@@@@@@",
"ooooOOOOOOooooooooXXXXooOOOOOOXXXXooooOOOOOO@@@@@@@@@@@@",
"ooooOOOOOOooooooooXXXXooOOXXXXOOooOOOOXXXXXXOOOO@@@@@@@@",
"ooooOOOOOOooooooooXXXXooOOXXXXOOooOOOOXXXXXXOOOO@@@@@@@@",
"ooooOOOOOOooooooooXXXXooXXOOOOooOOXXXXXXXXXXXXXXOO@@@@@@",
"ooooOOOOOOooooooooXXXXooXXOOOOooOOXXXXXXXXXXXXXXOO@@@@@@",
"ooooOOOOOOooooooooXXXXooooooooooXXXXXXXXXXXXXXXXXXoo@@@@",
"ooooOOOOOOooooooooXXXXooooooooooXXXXXXXXXXXXXXXXXXoo@@@@",
"ooooOOOOOOooooooooXXXXooooooooXXXXXXXX      XXXXXXXXoo@@",
"ooooOOOOOOooooooooXXXXooooooooXXXXXXXX      XXXXXXXXoo@@",
"ooooOOOOOOooooooooXXXXooooooooXXXXXX  XXXXXX  XXXXXXXX@@",
"ooooOOOOOOooooooooXXXXooooooooXXXXXX  XXXXXX  XXXXXXXX@@",
"ooooOOOOOOooooooooXXXXooXXooXXXXXX  XXXXXXXXXX  XXXXXXXX",
"ooooOOOOOOooooooooXXXXooXXooXXXXXX  XXXXXXXXXX  XXXXXXXX",
"ooooOOOOOOooooooooXXXXooXXXXXXXXXX  XXXXXXXXXX  XXXXXXXX",
"ooooOOOOOOooooooooXXXXooXXXXXXXXXX  XXXXXXXXXX  XXXXXXXX",
"ooooOOOOOOooooooooXXXXooXXXXXXXXXX  XXXXXXXXXX  XXXXXXXX",
"ooooOOOOOOooooooooXXXXooXXXXXXXXXX  XXXXXXXXXX  XXXXXXXX",
"ooooOOOOOOooooooooXXXXooXXXXXXXXXXXX  XXXXXX  XXXXXXXX@@",
"ooooOOOOOOooooooooXXXXooXXXXXXXXXXXX  XXXXXX  XXXXXXXX@@",
"XXooOOOOOOooooooooXXXXXXXXXXXXXXXXXXXX      XXXXXXXXXX@@",
"XXooOOOOOOooooooooXXXXXXXXXXXXXXXXXXXX      XXXXXXXXXX@@",
"ooXXOOOOOOooooooooXXXXooXXXXXXXXXXXXXXXXXXXXXXXXXXXX@@@@",
"ooXXOOOOOOooooooooXXXXooXXXXXXXXXXXXXXXXXXXXXXXXXXXX@@@@",
"ooooXXXXOOooooooXXXXXXoo@@XXXXXXXXXXXXXXXXXXXXXXXX@@@@@@",
"ooooXXXXOOooooooXXXXXXoo@@XXXXXXXXXXXXXXXXXXXXXXXX@@@@@@",
"@@ooOOOOXXXXXXXXooXXXX@@@@@@@@@@XXXXXXXXXXXXXXXX@@@@@@@@",
"@@ooOOOOXXXXXXXXooXXXX@@@@@@@@@@XXXXXXXXXXXXXXXX@@@@@@@@",
"@@@@@@OOOOoooooooo@@@@@@@@@@@@@@@@@@@@XXXXXX@@@@@@@@@@@@",
"@@@@@@OOOOoooooooo@@@@@@@@@@@@@@@@@@@@XXXXXX@@@@@@@@@@@@"
};
