/* XPM */
static char *_0589_a707a2b68da5a890cbd330ce5961db4622969e7c1a8e194c46cd463727c521b6[] = {
/* columns rows colors chars-per-pixel */
"90 90 8 1 ",
"  c #451818",
". c #5C2020",
"X c #702020",
"o c #8B2121",
"O c #A42727",
"+ c #BD2D2D",
"@ c #D03939",
"# c None",
/* pixels */
"##########################################################################################",
"##########################################################################################",
"##########################################################################################",
"##########################################################################################",
"##########################################################################################",
"##########################################################################################",
"##########################################################################################",
"##########################################################################################",
"##########################################################################################",
"##########################################################################################",
"##########################################################################################",
"##########################################################################################",
"##########################################################################################",
"##########################################################################################",
"##########################################################################################",
"##########################################################################################",
"##########################################################################################",
"##########################################################################################",
"##########################################################################################",
"##########################################################################################",
"##########################################################################################",
"##########################################################################################",
"##########################################################################################",
"##########################################################################################",
"##########################################################################################",
"##########################################################################################",
"######################################oX.XooooooX.Xo######################################",
"####################################oX.XooOOOOOOooX.Xo####################################",
"###################################o.XooOO++++++OOooX.o###################################",
"##################################o.XooO+++@@@@+++OooX.o##################################",
"#################################o.XooO+++@@@@@@+++OooX.o#################################",
"################################o.XXoOO++@@@@@@@@++OOoXX.o################################",
"################################X.XooO+++@@@@@@@@+++OooX.X################################",
"###############################o.XXoOO+++@@@@@@@@+++OOoXX.o###############################",
"###############################X.XooOO+++@@@@@@@@+++OOooX.X###############################",
"###############################XXXooOO+++@@@@@@@@+++OOooXXX###############################",
"##############################X.XXooOO+++@@@@@@@@+++OOooXX.X##############################",
"##############################X.XXooOO+++@@@@@@@@+++OOooXX.X##############################",
"##############################X.XXooOO+++@@@@@@@@+++OOooXX.X##############################",
"##############################X.XXooOO+++@@@@@@@@+++OOooXX.X##############################",
"#############################X..XXooOO+++@@@@@@@@+++OOooXX..X#############################",
"#############################X..XXooOO+++@@@@@@@@+++OOooXX..X#############################",
"#############################X..XXooOO+++@@@@@@@@+++OOooXX..X#############################",
"#############################X..XXooOO+++@@@@@@@@+++OOooXX..X#############################",
"#############################X..XXooOO+++@@@@@@@@+++OOooXX..X#############################",
"#############################X..XXooOO+++@@@@@@@@+++OOooXX..X#############################",
"############################# ..XXooOO+++@@@@@@@@+++OOooXX.. #############################",
"############################# ..XXooOO+++@@@@@@@@+++OOooXX.. #############################",
"############################# ..XXooOO+++@@@@@@@@+++OOooXX.. #############################",
"############################# ..XXooOO+++@@@@@@@@+++OOooXX.. #############################",
"############################# ..XXooOO+++@@@@@@@@+++OOooXX.. #############################",
"############################# ..XXooOO+++@@@@@@@@+++OOooXX.. #############################",
"############################# ..XXooOO+++@@@@@@@@+++OOooXX.. #############################",
"############################# ..XXooOO+++@@@@@@@@+++OOooXX.. #############################",
"############################# ..XXooOO+++@@@@@@@@+++OOooXX.. #############################",
"############################# ..XXooOO+++@@@@@@@@+++OOooXX.. #############################",
"############################# ..XXooOO+++@@@@@@@@+++OOooXX.. #############################",
"############################# ..XXooOO+++@@@@@@@@+++OOooXX.. #############################",
"############################# ..XXooOO+++@@@@@@@@+++OOooXX.. #############################",
"############################# ..XXooOO+++@@@@@@@@+++OOooXX.. #############################",
"############################# ..XXooOO+++@@@@@@@@+++OOooXX.. #############################",
"############################# ..XXooOO+++@@@@@@@@+++OOooXX.. #############################",
"############################# ..XXooOO+++@@@@@@@@+++OOooXX.. #############################",
"############################# ..XXooOO+++@@@@@@@@+++OOooXX.. #############################",
"############################# ..XXooOO+++@@@@@@@@+++OOooXX.. #############################",
"############################# ..XXooOO+++@@@@@@@@+++OOooXX.. #############################",
"############################# ..XXooOO+++@@@@@@@@+++OOooXX.. #############################",
"############################# ..XXooOO+++@@@@@@@@+++OOooXX.. #############################",
"############################# ..XXooOO+++@@@@@@@@+++OOooXX.. #############################",
"#############################  .XXooOO+++@@@@@@@@+++OOooXX.  #############################",
"#############################  .XXooOO+++@@@@@@@@+++OOooXX.  #############################",
"#############################  .XXooOO+++@@@@@@@@+++OOooXX.  #############################",
"#############################  .XXooOO+++@@@@@@@@+++OOooXX.  #############################",
"#############################  ..XooOO+++@@@@@@@@+++OOooX..  #############################",
"#############################   .XooOO+++@@@@@@@@+++OOooX.   #############################",
"#############################X  .XooOO+++@@@@@@@@+++OOooX.  X#############################",
"#############################X   XooOO+++@@@@@@@@+++OOooX   X#############################",
"#############################o    oooOO+++@@@@@@+++OOooo    o#############################",
"##############################.   XooOO++++@@@@++++OOooX   .##############################",
"##############################X   XoooOO++++++++++OOoooX   X##############################",
"##############################o.   XoooOOO++++++OOOoooX   .o##############################",
"###############################X.  XooooOOOOOOOOOOooooX  .X###############################",
"###############################oX   XoooooOOOOOOoooooX   Xo###############################",
"################################o.   XooooooooooooooX   .o################################",
"#################################X..  XXooooooooooXX  ..X#################################",
"##################################oX.. .XXooooooXX. ..Xo##################################",
"###################################oXXX ..XXXXXX.. XXXo###################################",
"#####################################ooXXXXXXXXXXXXoo#####################################",
"########################################oooooooooo########################################",
"##########################################################################################"
};
